<svg xmlns="http://www.w3.org/2000/svg" width="1400" height="1050" viewBox="0 0 1400 1050" role="img" aria-labelledby="title desc" data-visual-system="PBH-v1" data-canvas-profile="landscape-scientific" preserveAspectRatio="xMidYMid meet" data-reconciliation-pass="FINAL" data-master-family="HEALTHY_BROOD_REFERENCE" data-reconciliation-status="HOLD">
<!-- visual-system:PBH-v1 -->
<title id="title">Figure 39.2 — Healthy Brood Reference</title>
<desc id="desc">Reference plate showing eggs, pearly C-shaped larvae, healthy capped worker brood, pollen and honey cells.</desc>
<rect width="1400" height="1050" fill="#FFFFFF"/>
<text x="55" y="62" font-family="Arial,Helvetica,sans-serif" font-size="34" font-weight="700" fill="#1F2933">Figure 39.2 — Healthy Brood Reference</text>
<text x="55" y="102" font-family="Arial,Helvetica,sans-serif" font-size="19" font-weight="400" fill="#52606D" text-anchor="start">Learn normal brood morphology before interpreting disease signs.</text>
<rect x="55" y="155" width="300" height="320" rx="20" fill="#E8F5E9" stroke="#2E7D32" stroke-width="2.5"/>
<text x="75" y="189" font-family="Arial,Helvetica,sans-serif" font-size="21" font-weight="700" fill="#2E7D32" text-anchor="start">Egg</text>
<rect x="385" y="155" width="300" height="320" rx="20" fill="#E8F5E9" stroke="#2E7D32" stroke-width="2.5"/>
<text x="405" y="189" font-family="Arial,Helvetica,sans-serif" font-size="21" font-weight="700" fill="#2E7D32" text-anchor="start">Young larva</text>
<rect x="715" y="155" width="300" height="320" rx="20" fill="#E8F5E9" stroke="#2E7D32" stroke-width="2.5"/>
<text x="735" y="189" font-family="Arial,Helvetica,sans-serif" font-size="21" font-weight="700" fill="#2E7D32" text-anchor="start">Older larva</text>
<rect x="1045" y="155" width="300" height="320" rx="20" fill="#E8F5E9" stroke="#2E7D32" stroke-width="2.5"/>
<text x="1065" y="189" font-family="Arial,Helvetica,sans-serif" font-size="21" font-weight="700" fill="#2E7D32" text-anchor="start">Capped worker brood</text>
<rect x="220" y="555" width="300" height="320" rx="20" fill="#FFFBEA" stroke="#8D6E63" stroke-width="2.5"/>
<text x="240" y="589" font-family="Arial,Helvetica,sans-serif" font-size="21" font-weight="700" fill="#8D6E63" text-anchor="start">Pollen cell</text>
<rect x="550" y="555" width="300" height="320" rx="20" fill="#FFFBEA" stroke="#8D6E63" stroke-width="2.5"/>
<text x="570" y="589" font-family="Arial,Helvetica,sans-serif" font-size="21" font-weight="700" fill="#8D6E63" text-anchor="start">Nectar / honey cell</text>
<rect x="880" y="555" width="300" height="320" rx="20" fill="#E3F2FD" stroke="#1565C0" stroke-width="2.5"/>
<text x="900" y="589" font-family="Arial,Helvetica,sans-serif" font-size="21" font-weight="700" fill="#1565C0" text-anchor="start">Healthy mixed brood context</text>
<polygon points="282.9,285.0 282.9,375.0 205.0,420.0 127.1,375.0 127.1,285.0 205.0,240.0" fill="#FFF4C8" stroke="#8D6E63" stroke-width="4"/>
<ellipse cx="205" cy="330" rx="6.4" ry="22" fill="#FDFDFD" stroke="#B8B8B0" stroke-width="1.2"/>
<text x="205" y="448" font-family="Arial,Helvetica,sans-serif" font-size="16" font-weight="600" fill="#52606D" text-anchor="middle">one egg attached at cell base</text>
<polygon points="612.9,285.0 612.9,375.0 535.0,420.0 457.1,375.0 457.1,285.0 535.0,240.0" fill="#FFF4C8" stroke="#8D6E63" stroke-width="4"/>
<path d="M 506.95 313.5 C 528.4 282.15, 569.65 300.3, 563.05 334.95 C 558.1 363.0, 518.5 367.95, 506.95 343.2" fill="none" stroke="#E9E4D6" stroke-width="23.099999999999998" stroke-linecap="round" transform="rotate(0 535 330)"/>
<path d="M 506.95 313.5 C 528.4 282.15, 569.65 300.3, 563.05 334.95 C 558.1 363.0, 518.5 367.95, 506.95 343.2" fill="none" stroke="#FFFDF4" stroke-width="16.5" stroke-linecap="round" transform="rotate(0 535 330)"/>
<text x="535" y="448" font-family="Arial,Helvetica,sans-serif" font-size="16" font-weight="600" fill="#52606D" text-anchor="middle">pearly white, moist, glistening, C-shaped</text>
<polygon points="942.9,285.0 942.9,375.0 865.0,420.0 787.1,375.0 787.1,285.0 865.0,240.0" fill="#FFF4C8" stroke="#8D6E63" stroke-width="4"/>
<path d="M 828.45 308.5 C 856.4 267.65, 910.15 291.3, 901.55 336.45 C 895.1 373.0, 843.5 379.45, 828.45 347.2" fill="none" stroke="#E9E4D6" stroke-width="30.099999999999998" stroke-linecap="round" transform="rotate(0 865 330)"/>
<path d="M 828.45 308.5 C 856.4 267.65, 910.15 291.3, 901.55 336.45 C 895.1 373.0, 843.5 379.45, 828.45 347.2" fill="none" stroke="#FFFDF4" stroke-width="21.5" stroke-linecap="round" transform="rotate(0 865 330)"/>
<text x="865" y="448" font-family="Arial,Helvetica,sans-serif" font-size="16" font-weight="600" fill="#52606D" text-anchor="middle">larger C-shaped larva before capping</text>
<polygon points="1272.9,285.0 1272.9,375.0 1195.0,420.0 1117.1,375.0 1117.1,285.0 1195.0,240.0" fill="#B98755" stroke="#8A5A35" stroke-width="2"/>
<ellipse cx="1189" cy="323" rx="13" ry="7" fill="#D7AB7A" opacity="0.45"/>
<text x="1195" y="448" font-family="Arial,Helvetica,sans-serif" font-size="16" font-weight="600" fill="#52606D" text-anchor="middle">medium-brown, slightly convex, unpunctured</text>
<polygon points="447.9,675.0 447.9,765.0 370.0,810.0 292.1,765.0 292.1,675.0 370.0,630.0" fill="#F0C55F" stroke="#8D6E63" stroke-width="4"/>
<circle cx="345" cy="705" r="20" fill="#C7701A" opacity="0.92"/>
<circle cx="385" cy="700" r="20" fill="#E3A52F" opacity="0.92"/>
<circle cx="362" cy="738" r="20" fill="#A65B24" opacity="0.92"/>
<circle cx="398" cy="738" r="20" fill="#D98C10" opacity="0.92"/>
<circle cx="335" cy="748" r="20" fill="#C88D28" opacity="0.92"/>
<text x="370" y="840" font-family="Arial,Helvetica,sans-serif" font-size="16" font-weight="600" fill="#52606D" text-anchor="middle">packed grains; colours vary by source</text>
<polygon points="777.9,675.0 777.9,765.0 700.0,810.0 622.1,765.0 622.1,675.0 700.0,630.0" fill="#F7D66D" stroke="#8D6E63" stroke-width="4"/>
<ellipse cx="680" cy="690" rx="32" ry="18" fill="#FFF5B5" opacity="0.85"/>
<text x="700" y="840" font-family="Arial,Helvetica,sans-serif" font-size="16" font-weight="600" fill="#52606D" text-anchor="middle">liquid stores reflect light; appearance varies</text>
<polygon points="950.8,628.0 950.8,652.0 930.0,664.0 909.2,652.0 909.2,628.0 930.0,616.0" fill="#B98755" stroke="#8A5A35" stroke-width="2"/>
<ellipse cx="924.0" cy="633.0" rx="13" ry="7" fill="#D7AB7A" opacity="0.45"/>
<polygon points="992.4,628.0 992.4,652.0 971.6,664.0 950.8,652.0 950.8,628.0 971.6,616.0" fill="#B98755" stroke="#8A5A35" stroke-width="2"/>
<ellipse cx="965.569219381653" cy="633.0" rx="13" ry="7" fill="#D7AB7A" opacity="0.45"/>
<polygon points="1033.9,628.0 1033.9,652.0 1013.1,664.0 992.4,652.0 992.4,628.0 1013.1,616.0" fill="#B98755" stroke="#8A5A35" stroke-width="2"/>
<ellipse cx="1007.1384387633061" cy="633.0" rx="13" ry="7" fill="#D7AB7A" opacity="0.45"/>
<polygon points="1075.5,628.0 1075.5,652.0 1054.7,664.0 1033.9,652.0 1033.9,628.0 1054.7,616.0" fill="#B98755" stroke="#8A5A35" stroke-width="2"/>
<ellipse cx="1048.7076581449592" cy="633.0" rx="13" ry="7" fill="#D7AB7A" opacity="0.45"/>
<polygon points="1117.1,628.0 1117.1,652.0 1096.3,664.0 1075.5,652.0 1075.5,628.0 1096.3,616.0" fill="#B98755" stroke="#8A5A35" stroke-width="2"/>
<ellipse cx="1090.2768775266122" cy="633.0" rx="13" ry="7" fill="#D7AB7A" opacity="0.45"/>
<polygon points="1158.6,628.0 1158.6,652.0 1137.8,664.0 1117.1,652.0 1117.1,628.0 1137.8,616.0" fill="#B98755" stroke="#8A5A35" stroke-width="2"/>
<ellipse cx="1131.8460969082653" cy="633.0" rx="13" ry="7" fill="#D7AB7A" opacity="0.45"/>
<polygon points="971.6,664.0 971.6,688.0 950.8,700.0 930.0,688.0 930.0,664.0 950.8,652.0" fill="#B98755" stroke="#8A5A35" stroke-width="2"/>
<ellipse cx="944.7846096908265" cy="669.0" rx="13" ry="7" fill="#D7AB7A" opacity="0.45"/>
<polygon points="1013.1,664.0 1013.1,688.0 992.4,700.0 971.6,688.0 971.6,664.0 992.4,652.0" fill="#B98755" stroke="#8A5A35" stroke-width="2"/>
<ellipse cx="986.3538290724796" cy="669.0" rx="13" ry="7" fill="#D7AB7A" opacity="0.45"/>
<polygon points="1054.7,664.0 1054.7,688.0 1033.9,700.0 1013.1,688.0 1013.1,664.0 1033.9,652.0" fill="#B98755" stroke="#8A5A35" stroke-width="2"/>
<ellipse cx="1027.9230484541326" cy="669.0" rx="13" ry="7" fill="#D7AB7A" opacity="0.45"/>
<polygon points="1096.3,664.0 1096.3,688.0 1075.5,700.0 1054.7,688.0 1054.7,664.0 1075.5,652.0" fill="#B98755" stroke="#8A5A35" stroke-width="2"/>
<ellipse cx="1069.4922678357857" cy="669.0" rx="13" ry="7" fill="#D7AB7A" opacity="0.45"/>
<polygon points="1137.8,664.0 1137.8,688.0 1117.1,700.0 1096.3,688.0 1096.3,664.0 1117.1,652.0" fill="#B98755" stroke="#8A5A35" stroke-width="2"/>
<ellipse cx="1111.0614872174388" cy="669.0" rx="13" ry="7" fill="#D7AB7A" opacity="0.45"/>
<polygon points="1179.4,664.0 1179.4,688.0 1158.6,700.0 1137.8,688.0 1137.8,664.0 1158.6,652.0" fill="#B98755" stroke="#8A5A35" stroke-width="2"/>
<ellipse cx="1152.6307065990918" cy="669.0" rx="13" ry="7" fill="#D7AB7A" opacity="0.45"/>
<polygon points="950.8,700.0 950.8,724.0 930.0,736.0 909.2,724.0 909.2,700.0 930.0,688.0" fill="#B98755" stroke="#8A5A35" stroke-width="2"/>
<ellipse cx="924.0" cy="705.0" rx="13" ry="7" fill="#D7AB7A" opacity="0.45"/>
<polygon points="992.4,700.0 992.4,724.0 971.6,736.0 950.8,724.0 950.8,700.0 971.6,688.0" fill="#B98755" stroke="#8A5A35" stroke-width="2"/>
<ellipse cx="965.569219381653" cy="705.0" rx="13" ry="7" fill="#D7AB7A" opacity="0.45"/>
<polygon points="1033.9,700.0 1033.9,724.0 1013.1,736.0 992.4,724.0 992.4,700.0 1013.1,688.0" fill="#B98755" stroke="#8A5A35" stroke-width="2"/>
<ellipse cx="1007.1384387633061" cy="705.0" rx="13" ry="7" fill="#D7AB7A" opacity="0.45"/>
<polygon points="1075.5,700.0 1075.5,724.0 1054.7,736.0 1033.9,724.0 1033.9,700.0 1054.7,688.0" fill="#B98755" stroke="#8A5A35" stroke-width="2"/>
<ellipse cx="1048.7076581449592" cy="705.0" rx="13" ry="7" fill="#D7AB7A" opacity="0.45"/>
<polygon points="1117.1,700.0 1117.1,724.0 1096.3,736.0 1075.5,724.0 1075.5,700.0 1096.3,688.0" fill="#B98755" stroke="#8A5A35" stroke-width="2"/>
<ellipse cx="1090.2768775266122" cy="705.0" rx="13" ry="7" fill="#D7AB7A" opacity="0.45"/>
<polygon points="1158.6,700.0 1158.6,724.0 1137.8,736.0 1117.1,724.0 1117.1,700.0 1137.8,688.0" fill="#FFF7D6" stroke="#8D6E63" stroke-width="2"/>
<polygon points="971.6,736.0 971.6,760.0 950.8,772.0 930.0,760.0 930.0,736.0 950.8,724.0" fill="#B98755" stroke="#8A5A35" stroke-width="2"/>
<ellipse cx="944.7846096908265" cy="741.0" rx="13" ry="7" fill="#D7AB7A" opacity="0.45"/>
<polygon points="1013.1,736.0 1013.1,760.0 992.4,772.0 971.6,760.0 971.6,736.0 992.4,724.0" fill="#B98755" stroke="#8A5A35" stroke-width="2"/>
<ellipse cx="986.3538290724796" cy="741.0" rx="13" ry="7" fill="#D7AB7A" opacity="0.45"/>
<polygon points="1054.7,736.0 1054.7,760.0 1033.9,772.0 1013.1,760.0 1013.1,736.0 1033.9,724.0" fill="#B98755" stroke="#8A5A35" stroke-width="2"/>
<ellipse cx="1027.9230484541326" cy="741.0" rx="13" ry="7" fill="#D7AB7A" opacity="0.45"/>
<polygon points="1096.3,736.0 1096.3,760.0 1075.5,772.0 1054.7,760.0 1054.7,736.0 1075.5,724.0" fill="#B98755" stroke="#8A5A35" stroke-width="2"/>
<ellipse cx="1069.4922678357857" cy="741.0" rx="13" ry="7" fill="#D7AB7A" opacity="0.45"/>
<polygon points="1137.8,736.0 1137.8,760.0 1117.1,772.0 1096.3,760.0 1096.3,736.0 1117.1,724.0" fill="#B98755" stroke="#8A5A35" stroke-width="2"/>
<ellipse cx="1111.0614872174388" cy="741.0" rx="13" ry="7" fill="#D7AB7A" opacity="0.45"/>
<polygon points="1179.4,736.0 1179.4,760.0 1158.6,772.0 1137.8,760.0 1137.8,736.0 1158.6,724.0" fill="#B98755" stroke="#8A5A35" stroke-width="2"/>
<ellipse cx="1152.6307065990918" cy="741.0" rx="13" ry="7" fill="#D7AB7A" opacity="0.45"/>
<polygon points="950.8,772.0 950.8,796.0 930.0,808.0 909.2,796.0 909.2,772.0 930.0,760.0" fill="#FFF7D6" stroke="#8D6E63" stroke-width="2"/>
<polygon points="992.4,772.0 992.4,796.0 971.6,808.0 950.8,796.0 950.8,772.0 971.6,760.0" fill="#B98755" stroke="#8A5A35" stroke-width="2"/>
<ellipse cx="965.569219381653" cy="777.0" rx="13" ry="7" fill="#D7AB7A" opacity="0.45"/>
<polygon points="1033.9,772.0 1033.9,796.0 1013.1,808.0 992.4,796.0 992.4,772.0 1013.1,760.0" fill="#B98755" stroke="#8A5A35" stroke-width="2"/>
<ellipse cx="1007.1384387633061" cy="777.0" rx="13" ry="7" fill="#D7AB7A" opacity="0.45"/>
<polygon points="1075.5,772.0 1075.5,796.0 1054.7,808.0 1033.9,796.0 1033.9,772.0 1054.7,760.0" fill="#B98755" stroke="#8A5A35" stroke-width="2"/>
<ellipse cx="1048.7076581449592" cy="777.0" rx="13" ry="7" fill="#D7AB7A" opacity="0.45"/>
<polygon points="1117.1,772.0 1117.1,796.0 1096.3,808.0 1075.5,796.0 1075.5,772.0 1096.3,760.0" fill="#B98755" stroke="#8A5A35" stroke-width="2"/>
<ellipse cx="1090.2768775266122" cy="777.0" rx="13" ry="7" fill="#D7AB7A" opacity="0.45"/>
<polygon points="1158.6,772.0 1158.6,796.0 1137.8,808.0 1117.1,796.0 1117.1,772.0 1137.8,760.0" fill="#B98755" stroke="#8A5A35" stroke-width="2"/>
<ellipse cx="1131.8460969082653" cy="777.0" rx="13" ry="7" fill="#D7AB7A" opacity="0.45"/>
<polygon points="971.6,808.0 971.6,832.0 950.8,844.0 930.0,832.0 930.0,808.0 950.8,796.0" fill="#B98755" stroke="#8A5A35" stroke-width="2"/>
<ellipse cx="944.7846096908265" cy="813.0" rx="13" ry="7" fill="#D7AB7A" opacity="0.45"/>
<polygon points="1013.1,808.0 1013.1,832.0 992.4,844.0 971.6,832.0 971.6,808.0 992.4,796.0" fill="#B98755" stroke="#8A5A35" stroke-width="2"/>
<ellipse cx="986.3538290724796" cy="813.0" rx="13" ry="7" fill="#D7AB7A" opacity="0.45"/>
<polygon points="1054.7,808.0 1054.7,832.0 1033.9,844.0 1013.1,832.0 1013.1,808.0 1033.9,796.0" fill="#B98755" stroke="#8A5A35" stroke-width="2"/>
<ellipse cx="1027.9230484541326" cy="813.0" rx="13" ry="7" fill="#D7AB7A" opacity="0.45"/>
<polygon points="1096.3,808.0 1096.3,832.0 1075.5,844.0 1054.7,832.0 1054.7,808.0 1075.5,796.0" fill="#B98755" stroke="#8A5A35" stroke-width="2"/>
<ellipse cx="1069.4922678357857" cy="813.0" rx="13" ry="7" fill="#D7AB7A" opacity="0.45"/>
<polygon points="1137.8,808.0 1137.8,832.0 1117.1,844.0 1096.3,832.0 1096.3,808.0 1117.1,796.0" fill="#B98755" stroke="#8A5A35" stroke-width="2"/>
<ellipse cx="1111.0614872174388" cy="813.0" rx="13" ry="7" fill="#D7AB7A" opacity="0.45"/>
<polygon points="1179.4,808.0 1179.4,832.0 1158.6,844.0 1137.8,832.0 1137.8,808.0 1158.6,796.0" fill="#B98755" stroke="#8A5A35" stroke-width="2"/>
<ellipse cx="1152.6307065990918" cy="813.0" rx="13" ry="7" fill="#D7AB7A" opacity="0.45"/>
<text x="1030" y="840" font-family="Arial,Helvetica,sans-serif" font-size="16" font-weight="600" fill="#52606D" text-anchor="middle">normal brood can contain a few non-brood cells</text>
<rect x="55" y="900" width="1290" height="90" rx="16" fill="#E3F2FD" stroke="#1565C0" stroke-width="2.5"/>
<text x="78" y="930" font-family="Arial,Helvetica,sans-serif" font-size="18" font-weight="600" fill="#1F2933" text-anchor="start">Healthy larvae are pearly white and C-shaped; healthy worker-brood cappings are generally coherent, medium brown, slightly convex and unpunctured.</text>
</svg>
