<svg xmlns="http://www.w3.org/2000/svg" width="1400" height="1000" viewBox="0 0 1400 1000" role="img" aria-labelledby="title desc" data-visual-system="PBH-v1" data-canvas-profile="landscape-standard" preserveAspectRatio="xMidYMid meet">
<!-- visual-system:PBH-v1 -->
<title id="title">Figure 6.5 — Worker, Queen and Drone Anatomy Comparison</title>
<desc id="desc">Side-by-side caste anatomy comparison showing relative abdomen, eye size, pollen-collection structures and reproductive role.</desc>
<defs>
<marker id="ab" markerWidth="10" markerHeight="10" refX="8" refY="3" orient="auto"><path d="M0,0 L0,6 L9,3 z" fill="#1565C0"/></marker>
<marker id="ag" markerWidth="10" markerHeight="10" refX="8" refY="3" orient="auto"><path d="M0,0 L0,6 L9,3 z" fill="#2E7D32"/></marker>
<marker id="ap" markerWidth="10" markerHeight="10" refX="8" refY="3" orient="auto"><path d="M0,0 L0,6 L9,3 z" fill="#6A1B9A"/></marker>
</defs>
<rect width="1400" height="1000" fill="#FFFFFF"/>
<text x="55" y="60" font-family="Arial,Helvetica,sans-serif" font-size="34" font-weight="700" fill="#1F2933">Figure 6.5 — Worker, Queen and Drone Anatomy Comparison</text>
<text x="55" y="100" font-family="Arial,Helvetica,sans-serif" font-size="18" font-weight="400" fill="#52606D" text-anchor="start">Differences are functional, not a simple 'small–medium–large' size ranking.</text>
<rect x="55" y="155" width="390" height="700" rx="18" fill="#E3F2FD" stroke="#1565C0" stroke-width="2.5"/>
<text x="73" y="186" font-family="Arial,Helvetica,sans-serif" font-size="20" font-weight="700" fill="#1565C0" text-anchor="start">WORKER</text>
<path d="M 170.75 388.75 C 204.75 325.0, 281.25 333.5, 249.8 393.0 Z" fill="#D9EEF7" opacity="0.78" stroke="#7EAFC3" stroke-width="1.7"/>
<path d="M 183.5 414.25 C 226.0 456.75, 275.3 448.25, 243.0 414.25 Z" fill="#D9EEF7" opacity="0.58" stroke="#7EAFC3" stroke-width="1.36"/>
<circle cx="111.25" cy="410" r="25.5" fill="#E0A419" stroke="#5D4037" stroke-width="2.55"/>
<ellipse cx="175" cy="410" rx="37.4" ry="33.15" fill="#E0A419" stroke="#5D4037" stroke-width="2.55"/>
<ellipse cx="270.2" cy="410" rx="61.199999999999996" ry="26.349999999999998" fill="#E0A419" stroke="#5D4037" stroke-width="2.55"/>
<line x1="229.4" y1="387.6025" x2="229.4" y2="432.3975" stroke="#5D4037" stroke-width="3.4" opacity="0.7"/>
<line x1="249.8" y1="387.6025" x2="249.8" y2="432.3975" stroke="#5D4037" stroke-width="3.4" opacity="0.7"/>
<line x1="270.2" y1="387.6025" x2="270.2" y2="432.3975" stroke="#5D4037" stroke-width="3.4" opacity="0.7"/>
<line x1="290.6" y1="387.6025" x2="290.6" y2="432.3975" stroke="#5D4037" stroke-width="3.4" opacity="0.7"/>
<line x1="311.0" y1="387.6025" x2="311.0" y2="432.3975" stroke="#5D4037" stroke-width="3.4" opacity="0.7"/>
<path d="M 98.5 393.0 Q 68.75 363.25 51.75 374.3" fill="none" stroke="#5D4037" stroke-width="2.55"/>
<path d="M 107.0 389.6 Q 94.25 350.5 73.0 348.8" fill="none" stroke="#5D4037" stroke-width="2.55"/>
<ellipse cx="100.2" cy="406.6" rx="9.35" ry="13.6" fill="#3C2E25"/>
<path d="M 158.0 431.25 L 136.75 479.7 L 153.75 510.3" fill="none" stroke="#5D4037" stroke-width="3.4" stroke-linecap="round"/>
<path d="M 179.25 431.25 L 158.0 479.7 L 175.0 510.3" fill="none" stroke="#5D4037" stroke-width="3.4" stroke-linecap="round"/>
<path d="M 198.8 431.25 L 177.55 479.7 L 194.55 510.3" fill="none" stroke="#5D4037" stroke-width="3.4" stroke-linecap="round"/>
<text x="250" y="555" font-family="Arial,Helvetica,sans-serif" font-size="16" font-weight="700" fill="#52606D" text-anchor="middle">female; usually non-reproductive</text>
<text x="80" y="620" font-family="Arial,Helvetica,sans-serif" font-size="16" font-weight="500" fill="#1F2933" text-anchor="start">• moderate compound eyes</text>
<text x="80" y="647" font-family="Arial,Helvetica,sans-serif" font-size="16" font-weight="500" fill="#1F2933" text-anchor="start">• hind-leg pollen basket</text>
<text x="80" y="674" font-family="Arial,Helvetica,sans-serif" font-size="16" font-weight="500" fill="#1F2933" text-anchor="start">• sting apparatus present</text>
<text x="80" y="701" font-family="Arial,Helvetica,sans-serif" font-size="16" font-weight="500" fill="#1F2933" text-anchor="start">• reduced ovaries</text>
<rect x="495" y="155" width="390" height="700" rx="18" fill="#F3E5F5" stroke="#6A1B9A" stroke-width="2.5"/>
<text x="513" y="186" font-family="Arial,Helvetica,sans-serif" font-size="20" font-weight="700" fill="#6A1B9A" text-anchor="start">QUEEN</text>
<path d="M 610.75 388.75 C 644.75 325.0, 721.25 333.5, 689.8 393.0 Z" fill="#D9EEF7" opacity="0.78" stroke="#7EAFC3" stroke-width="1.7"/>
<path d="M 623.5 414.25 C 666.0 456.75, 715.3 448.25, 683.0 414.25 Z" fill="#D9EEF7" opacity="0.58" stroke="#7EAFC3" stroke-width="1.36"/>
<circle cx="551.25" cy="410" r="23.8" fill="#E0A419" stroke="#5D4037" stroke-width="2.55"/>
<ellipse cx="615" cy="410" rx="39.1" ry="35.699999999999996" fill="#E0A419" stroke="#5D4037" stroke-width="2.55"/>
<ellipse cx="723.8" cy="410" rx="80.75" ry="28.9" fill="#E0A419" stroke="#5D4037" stroke-width="2.55"/>
<line x1="683.0" y1="385.435" x2="683.0" y2="434.565" stroke="#5D4037" stroke-width="3.4" opacity="0.7"/>
<line x1="703.4" y1="385.435" x2="703.4" y2="434.565" stroke="#5D4037" stroke-width="3.4" opacity="0.7"/>
<line x1="723.8" y1="385.435" x2="723.8" y2="434.565" stroke="#5D4037" stroke-width="3.4" opacity="0.7"/>
<line x1="744.2" y1="385.435" x2="744.2" y2="434.565" stroke="#5D4037" stroke-width="3.4" opacity="0.7"/>
<line x1="764.6" y1="385.435" x2="764.6" y2="434.565" stroke="#5D4037" stroke-width="3.4" opacity="0.7"/>
<path d="M 538.5 393.0 Q 508.75 363.25 491.75 374.3" fill="none" stroke="#5D4037" stroke-width="2.55"/>
<path d="M 547.0 389.6 Q 534.25 350.5 513.0 348.8" fill="none" stroke="#5D4037" stroke-width="2.55"/>
<ellipse cx="540.2" cy="406.6" rx="9.35" ry="13.6" fill="#3C2E25"/>
<path d="M 598.0 431.25 L 576.75 479.7 L 593.75 510.3" fill="none" stroke="#5D4037" stroke-width="3.4" stroke-linecap="round"/>
<path d="M 619.25 431.25 L 598.0 479.7 L 615.0 510.3" fill="none" stroke="#5D4037" stroke-width="3.4" stroke-linecap="round"/>
<path d="M 638.8 431.25 L 617.55 479.7 L 634.55 510.3" fill="none" stroke="#5D4037" stroke-width="3.4" stroke-linecap="round"/>
<text x="690" y="555" font-family="Arial,Helvetica,sans-serif" font-size="16" font-weight="700" fill="#52606D" text-anchor="middle">reproductive female</text>
<text x="520" y="620" font-family="Arial,Helvetica,sans-serif" font-size="16" font-weight="500" fill="#1F2933" text-anchor="start">• elongated abdomen</text>
<text x="520" y="647" font-family="Arial,Helvetica,sans-serif" font-size="16" font-weight="500" fill="#1F2933" text-anchor="start">• developed ovaries + spermatheca</text>
<text x="520" y="674" font-family="Arial,Helvetica,sans-serif" font-size="16" font-weight="500" fill="#1F2933" text-anchor="start">• no pollen basket</text>
<text x="520" y="701" font-family="Arial,Helvetica,sans-serif" font-size="16" font-weight="500" fill="#1F2933" text-anchor="start">• sting modified for queen context</text>
<rect x="935" y="155" width="390" height="700" rx="18" fill="#FFF3E0" stroke="#EF6C00" stroke-width="2.5"/>
<text x="953" y="186" font-family="Arial,Helvetica,sans-serif" font-size="20" font-weight="700" fill="#EF6C00" text-anchor="start">DRONE</text>
<path d="M 1050.75 388.75 C 1084.75 325.0, 1161.25 333.5, 1129.8 393.0 Z" fill="#D9EEF7" opacity="0.78" stroke="#7EAFC3" stroke-width="1.7"/>
<path d="M 1063.5 414.25 C 1106.0 456.75, 1155.3 448.25, 1123.0 414.25 Z" fill="#D9EEF7" opacity="0.58" stroke="#7EAFC3" stroke-width="1.36"/>
<circle cx="991.25" cy="410" r="34.0" fill="#E0A419" stroke="#5D4037" stroke-width="2.55"/>
<ellipse cx="1055" cy="410" rx="44.199999999999996" ry="40.8" fill="#E0A419" stroke="#5D4037" stroke-width="2.55"/>
<ellipse cx="1161.25" cy="410" rx="63.75" ry="35.699999999999996" fill="#E0A419" stroke="#5D4037" stroke-width="2.55"/>
<line x1="1120.45" y1="379.65500000000003" x2="1120.45" y2="440.34499999999997" stroke="#5D4037" stroke-width="3.4" opacity="0.7"/>
<line x1="1140.85" y1="379.65500000000003" x2="1140.85" y2="440.34499999999997" stroke="#5D4037" stroke-width="3.4" opacity="0.7"/>
<line x1="1161.25" y1="379.65500000000003" x2="1161.25" y2="440.34499999999997" stroke="#5D4037" stroke-width="3.4" opacity="0.7"/>
<line x1="1181.65" y1="379.65500000000003" x2="1181.65" y2="440.34499999999997" stroke="#5D4037" stroke-width="3.4" opacity="0.7"/>
<line x1="1202.05" y1="379.65500000000003" x2="1202.05" y2="440.34499999999997" stroke="#5D4037" stroke-width="3.4" opacity="0.7"/>
<path d="M 978.5 393.0 Q 948.75 363.25 931.75 374.3" fill="none" stroke="#5D4037" stroke-width="2.55"/>
<path d="M 987.0 389.6 Q 974.25 350.5 953.0 348.8" fill="none" stroke="#5D4037" stroke-width="2.55"/>
<ellipse cx="980.2" cy="406.6" rx="15.299999999999999" ry="19.55" fill="#3C2E25"/>
<ellipse cx="1000.6" cy="406.6" rx="15.299999999999999" ry="19.55" fill="#3C2E25"/>
<path d="M 1038.0 431.25 L 1016.75 479.7 L 1033.75 510.3" fill="none" stroke="#5D4037" stroke-width="3.4" stroke-linecap="round"/>
<path d="M 1059.25 431.25 L 1038.0 479.7 L 1055.0 510.3" fill="none" stroke="#5D4037" stroke-width="3.4" stroke-linecap="round"/>
<path d="M 1078.8 431.25 L 1057.55 479.7 L 1074.55 510.3" fill="none" stroke="#5D4037" stroke-width="3.4" stroke-linecap="round"/>
<text x="1130" y="555" font-family="Arial,Helvetica,sans-serif" font-size="16" font-weight="700" fill="#52606D" text-anchor="middle">haploid male</text>
<text x="960" y="620" font-family="Arial,Helvetica,sans-serif" font-size="16" font-weight="500" fill="#1F2933" text-anchor="start">• very large compound eyes</text>
<text x="960" y="647" font-family="Arial,Helvetica,sans-serif" font-size="16" font-weight="500" fill="#1F2933" text-anchor="start">• stout body</text>
<text x="960" y="674" font-family="Arial,Helvetica,sans-serif" font-size="16" font-weight="500" fill="#1F2933" text-anchor="start">• no pollen basket</text>
<text x="960" y="701" font-family="Arial,Helvetica,sans-serif" font-size="16" font-weight="500" fill="#1F2933" text-anchor="start">• no worker-type sting; male reproductive tract</text>
<rect x="55" y="885" width="1290" height="80" rx="14" fill="#E3F2FD" stroke="#1565C0" stroke-width="2.5"/>
<text x="78" y="914" font-family="Arial,Helvetica,sans-serif" font-size="17" font-weight="600" fill="#1F2933" text-anchor="start">Caste differences arise from sex determination and developmental/nutritional pathways. Queen and worker are female; drones develop from unfertilised eggs.</text>
</svg>
